<?xml version="1.0" standalone="no"?>
<!DOCTYPE svg PUBLIC "-//W3C//DTD SVG 20010904//EN"
 "http://www.w3.org/TR/2001/REC-SVG-20010904/DTD/svg10.dtd">
<svg version="1.0" xmlns="http://www.w3.org/2000/svg"
 width="900.000000pt" height="500.000000pt" viewBox="0 0 900.000000 500.000000"
 preserveAspectRatio="xMidYMid meet">
<metadata>
Created by potrace 1.16, written by Peter Selinger 2001-2019
</metadata>
<g transform="translate(0.000000,500.000000) scale(0.100000,-0.100000)"
fill="#000000" stroke="none">
<path d="M735 3450 c-51 -8 -75 -21 -113 -64 -46 -53 -52 -102 -52 -461 l0
-324 26 -20 c33 -26 54 -26 87 -1 l26 21 3 343 c3 321 4 345 22 365 40 44 44
44 766 -178 574 -177 689 -215 708 -237 l22 -25 0 -480 c0 -531 1 -522 -64
-553 -45 -21 -101 -20 -154 4 -49 22 -86 15 -97 -20 -18 -57 93 -124 206 -125
56 0 73 5 115 30 54 34 89 79 104 136 7 25 10 219 8 546 l-3 508 -23 40 c-13
22 -35 48 -48 59 -14 10 -92 37 -172 61 -1002 293 -1281 373 -1302 377 -14 2
-43 1 -65 -2z"/>
<path d="M3052 2448 l3 -513 58 -3 57 -3 0 196 0 195 91 0 c278 0 432 134 417
365 -8 121 -60 195 -174 247 -45 21 -67 23 -252 26 l-202 4 2 -514z m363 391
c54 -15 104 -54 121 -95 18 -42 18 -145 0 -187 -19 -46 -78 -94 -138 -112 -29
-8 -89 -15 -140 -15 l-88 0 0 210 0 210 103 0 c56 0 120 -5 142 -11z"/>
<path d="M7422 2448 l3 -513 190 1 c170 0 196 3 245 22 116 46 179 127 188
243 10 137 -47 229 -162 265 l-56 18 28 12 c49 20 99 72 122 126 18 43 22 65
17 121 -6 90 -39 140 -122 182 -58 30 -59 30 -257 33 l-198 4 2 -514z m375
381 c114 -55 102 -221 -20 -286 -22 -12 -64 -18 -134 -21 l-103 -4 0 166 0
166 107 0 c88 0 114 -4 150 -21z m41 -447 c128 -68 116 -261 -20 -317 -30 -12
-80 -20 -160 -23 l-118 -4 0 187 0 187 128 -4 c108 -3 133 -7 170 -26z"/>
<path d="M8262 2448 l3 -513 55 0 55 0 3 513 2 512 -60 0 -60 0 2 -512z"/>
<path d="M1587 2822 c-15 -17 -17 -75 -17 -634 l0 -615 23 -21 c20 -19 35 -22
100 -22 129 0 117 -66 117 658 0 587 -1 620 -18 635 -28 26 -182 24 -205 -1z"/>
<path d="M4051 2679 c-75 -13 -132 -40 -185 -89 -145 -134 -150 -433 -10 -574
62 -61 133 -90 236 -94 110 -5 183 16 253 73 169 138 177 462 15 608 -74 67
-194 96 -309 76z m178 -119 c71 -36 107 -96 120 -198 14 -112 -11 -225 -62
-281 -36 -39 -95 -61 -167 -61 -155 0 -243 102 -243 280 0 102 24 167 83 225
66 65 182 80 269 35z"/>
<path d="M5960 2680 c-150 -26 -256 -145 -281 -313 -20 -138 19 -284 96 -362
56 -55 114 -78 217 -83 94 -5 156 6 226 39 42 21 42 21 42 75 0 30 -3 54 -6
54 -3 0 -18 -9 -33 -19 -49 -35 -125 -53 -205 -49 -64 3 -81 8 -118 34 -52 37
-87 96 -95 163 l-6 51 258 0 257 0 -4 98 c-5 122 -30 184 -98 245 -65 59 -157
83 -250 67z m105 -101 c72 -20 125 -97 125 -181 l0 -28 -195 0 c-222 0 -213
-4 -171 85 30 63 72 103 127 120 55 17 65 17 114 4z"/>
<path d="M6735 2666 c-38 -17 -81 -60 -106 -106 l-18 -35 -1 73 0 72 -60 0
-60 0 2 -367 3 -368 55 0 55 0 5 240 c4 163 10 250 19 270 19 46 59 93 91 110
33 17 102 20 131 5 17 -10 19 -7 20 30 1 22 2 46 3 53 4 24 -17 37 -63 37 -25
-1 -59 -7 -76 -14z"/>
<path d="M4565 2658 c2 -7 34 -112 70 -233 132 -435 146 -480 154 -488 4 -4
32 -7 61 -5 47 3 54 6 61 28 65 212 161 518 165 530 3 8 43 -113 88 -270 l82
-285 53 -3 c30 -2 58 1 64 7 6 6 56 162 112 348 56 186 105 348 109 361 7 21
5 22 -52 22 l-59 0 -11 -37 c-6 -21 -38 -139 -71 -263 -33 -124 -65 -245 -72
-270 l-12 -45 -8 40 c-5 22 -41 159 -82 305 l-73 265 -49 3 c-26 2 -52 -1 -56
-5 -10 -10 -179 -557 -179 -579 0 -8 -4 -14 -10 -14 -5 0 -10 8 -10 18 0 19
-133 513 -150 558 -9 22 -15 24 -69 24 -44 0 -59 -3 -56 -12z"/>
<path d="M1263 2650 c-12 -5 -26 -18 -32 -29 -7 -13 -11 -172 -11 -474 0 -531
-7 -495 100 -498 81 -2 104 5 118 37 17 35 17 893 1 928 -7 14 -25 30 -42 36
-36 12 -103 12 -134 0z"/>
<path d="M923 2550 c-12 -5 -26 -18 -32 -29 -7 -13 -11 -141 -11 -368 0 -338
1 -350 20 -371 14 -15 34 -23 63 -24 79 -3 102 2 125 28 22 25 22 26 22 373 0
412 5 393 -101 398 -35 1 -74 -1 -86 -7z"/>
<path d="M562 2417 c-21 -23 -22 -31 -22 -261 l0 -237 25 -24 c20 -21 34 -25
79 -25 74 0 104 15 117 59 7 22 9 119 7 254 -3 216 -3 219 -27 238 -18 14 -39
19 -90 19 -58 0 -71 -3 -89 -23z"/>
</g>
</svg>
