<?xml version="1.0" standalone="no"?>
<!DOCTYPE svg PUBLIC "-//W3C//DTD SVG 20010904//EN"
 "http://www.w3.org/TR/2001/REC-SVG-20010904/DTD/svg10.dtd">
<svg version="1.0" xmlns="http://www.w3.org/2000/svg"
 width="120.000000pt" height="49.000000pt" viewBox="0 0 120.000000 49.000000"
 preserveAspectRatio="xMidYMid meet">
<metadata>
Created by potrace 1.16, written by Peter Selinger 2001-2019
</metadata>
<g transform="translate(0.000000,49.000000) scale(0.100000,-0.100000)"
fill="#000000" stroke="none">
<path d="M72 470 c-45 -28 -72 -76 -72 -130 0 -50 18 -86 83 -162 32 -38 46
-48 66 -46 42 5 39 40 -8 100 -49 61 -57 87 -39 124 34 69 134 93 197 46 35
-26 38 -22 14 18 -39 67 -169 94 -241 50z"/>
<path d="M439 424 c-63 -26 -78 -96 -31 -144 18 -18 47 -32 82 -39 50 -11 90
-34 90 -52 0 -21 -35 -39 -76 -39 -39 0 -47 4 -62 30 -12 22 -24 30 -44 30
-32 0 -34 -7 -14 -55 20 -48 65 -68 139 -63 52 4 64 9 88 36 26 29 28 30 34
11 15 -47 115 -64 172 -30 31 19 31 19 36 0 4 -14 14 -19 41 -19 32 0 36 3 36
27 l0 26 25 -23 c33 -31 127 -40 172 -16 29 15 31 14 36 -5 7 -26 31 -20 35 9
2 14 -2 22 -11 22 -12 0 -13 7 -8 33 10 44 -4 91 -31 105 -13 7 -50 20 -82 30
-69 20 -92 45 -62 68 29 21 64 17 92 -11 30 -31 74 -34 74 -6 0 35 -46 78 -90
85 -53 8 -115 -9 -135 -37 -18 -26 -20 -87 -2 -111 7 -10 49 -30 92 -44 82
-28 100 -47 75 -77 -18 -22 -93 -19 -113 3 -10 10 -17 24 -17 30 0 7 -14 12
-31 12 -29 0 -31 -2 -27 -30 3 -20 0 -30 -9 -30 -10 0 -13 26 -13 114 0 106
-2 117 -23 142 -20 23 -31 27 -84 28 -69 1 -108 -16 -129 -56 -22 -42 -18 -58
14 -58 21 0 32 7 40 25 23 49 114 44 120 -7 3 -23 -2 -28 -35 -37 -21 -6 -44
-11 -50 -11 -29 0 -93 -33 -98 -51 -6 -18 -8 -17 -33 9 -18 19 -49 34 -95 47
-72 19 -91 33 -81 59 14 35 102 32 111 -4 4 -15 14 -20 38 -20 33 0 33 1 25
31 -13 43 -27 57 -69 69 -48 13 -69 12 -112 -6z"/>
<path d="M156 354 c-23 -23 -21 -31 29 -92 56 -68 63 -92 38 -134 -38 -67
-131 -85 -195 -38 -40 29 -38 1 4 -40 40 -41 66 -50 136 -50 65 0 112 23 140
68 14 24 20 27 34 18 13 -8 21 -7 29 1 18 18 3 46 -21 40 -17 -4 -20 0 -20 32
0 42 -34 102 -97 169 -44 46 -54 50 -77 26z"/>
</g>
</svg>
