<?xml version="1.0" standalone="no"?>
<!DOCTYPE svg PUBLIC "-//W3C//DTD SVG 20010904//EN"
 "http://www.w3.org/TR/2001/REC-SVG-20010904/DTD/svg10.dtd">
<svg version="1.0" xmlns="http://www.w3.org/2000/svg"
 width="250.000000pt" height="250.000000pt" viewBox="0 0 250.000000 250.000000"
 preserveAspectRatio="xMidYMid meet">
<metadata>
Created by potrace 1.16, written by Peter Selinger 2001-2019
</metadata>
<g transform="translate(0.000000,250.000000) scale(0.100000,-0.100000)"
fill="#000000" stroke="none">
<path d="M210 1479 c-38 -15 -60 -39 -86 -93 -30 -62 -30 -73 2 -135 42 -81
75 -96 219 -98 66 -1 123 -3 127 -3 4 0 12 -9 18 -21 9 -16 8 -26 -5 -45 -15
-24 -17 -24 -174 -24 l-159 0 -18 -52 c-9 -29 -22 -56 -28 -60 -6 -4 76 -8
182 -8 216 0 244 6 284 64 32 44 37 149 9 194 -39 61 -71 72 -207 72 -104 0
-123 2 -137 18 -19 21 -21 40 -7 62 7 12 42 16 171 20 l162 5 12 35 c7 19 15
45 19 58 l7 22 -183 -1 c-101 0 -194 -5 -208 -10z"/>
<path d="M602 1430 l-21 -60 70 0 69 0 0 -215 0 -215 55 0 55 0 0 215 0 214
57 3 c61 3 57 -1 87 96 l7 22 -179 0 -180 0 -20 -60z"/>
<path d="M994 1473 c-3 -10 -12 -35 -20 -56 -8 -20 -14 -40 -14 -42 0 -3 76
-5 168 -5 154 0 170 -2 186 -19 10 -11 16 -31 14 -48 l-3 -28 -156 -5 c-171
-6 -192 -12 -230 -73 -28 -44 -23 -149 9 -193 41 -58 68 -64 292 -64 l201 0
-3 213 c-3 236 -10 266 -72 310 -29 20 -44 22 -199 25 -154 3 -168 2 -173 -15z
m334 -367 l3 -46 -140 0 c-133 0 -141 1 -155 22 -20 28 -20 34 2 56 15 15 35
17 152 15 l135 -1 3 -46z"/>
<path d="M1462 1430 l-21 -60 70 0 69 0 0 -215 0 -215 55 0 55 0 0 215 0 214
57 3 c61 3 57 -1 87 96 l7 22 -179 0 -180 0 -20 -60z"/>
<path d="M1841 1434 c-11 -31 -21 -58 -21 -60 0 -2 76 -4 168 -4 154 0 170 -2
186 -19 10 -11 16 -31 14 -48 l-3 -28 -156 -5 c-171 -6 -192 -12 -230 -73 -28
-44 -23 -149 9 -193 41 -58 68 -64 292 -64 l201 0 -3 218 c-3 217 -3 219 -30
259 -42 64 -72 73 -251 73 l-154 0 -22 -56z m347 -329 l3 -45 -140 0 c-133 0
-141 1 -155 22 -20 28 -20 34 2 56 15 15 35 17 152 15 l135 -2 3 -46z"/>
</g>
</svg>
